<svg version="1.2" xmlns="http://www.w3.org/2000/svg" viewBox="0 0 24 24" width="24" height="24">
	<title>bxs-news-svg</title>
	<style>
		.s0 { fill: #0891b2 } 
	</style>
	<path id="Layer" fill-rule="evenodd" class="s0" d="m20 7h2v10c0 1.7-1.3 3-3 3h-15q-0.4 0-0.8-0.2-0.3-0.1-0.6-0.4-0.3-0.3-0.4-0.6-0.2-0.4-0.2-0.8v-13q0-0.2 0.1-0.4 0.1-0.2 0.2-0.3 0.1-0.1 0.3-0.2 0.2-0.1 0.4-0.1h14q0.2 0 0.4 0.1 0.2 0.1 0.3 0.2 0.1 0.1 0.2 0.3 0.1 0.2 0.1 0.4v12q0 0.4 0.3 0.7 0.3 0.3 0.7 0.3 0.4 0 0.7-0.3 0.3-0.3 0.3-0.7zm-8 2h3v-2h-3zm0 4h3v-2h-3zm-7 0h5v-6h-5zm10 4v-2h-10v2z"/>
</svg>